<?xml version="1.0" encoding="iso-8859-1"?>
<!-- Generator: Adobe Illustrator 19.0.0, SVG Export Plug-In . SVG Version: 6.00 Build 0)  -->
<svg version="1.1" id="Capa_1" xmlns="http://www.w3.org/2000/svg" xmlns:xlink="http://www.w3.org/1999/xlink" x="0px" y="0px"
	 viewBox="0 0 512.002 512.002" style="enable-background:new 0 0 512.002 512.002;" xml:space="preserve">
<path style="fill:#E53935;" d="M443.734,236.557l-112.939-9.813c-49.812-4.334-99.906-4.334-149.717,0L68.14,236.557
	c-38.659,3.187-68.348,35.6-68.139,74.389V412.28c-0.204,38.835,29.557,71.265,68.267,74.389l112.939,9.813
	c24.832,2.133,49.835,3.243,74.859,3.243c25.024,0,50.027-1.067,74.859-3.243l112.939-9.813
	c38.667-3.188,68.359-35.613,68.139-74.411V310.925C512.194,272.098,482.436,239.681,443.734,236.557z"/>
<g>
	<path style="fill:#FAFAFA;" d="M96.001,438.946c-5.891,0-10.667-4.776-10.667-10.667v-128c0-5.891,4.776-10.667,10.667-10.667
		c5.891,0,10.667,4.776,10.667,10.667v128C106.668,434.171,101.892,438.946,96.001,438.946z"/>
	<path style="fill:#FAFAFA;" d="M138.668,310.946H53.334c-5.891,0-10.667-4.776-10.667-10.667s4.776-10.667,10.667-10.667h85.333
		c5.891,0,10.667,4.776,10.667,10.667S144.559,310.946,138.668,310.946z"/>
</g>
<g>
	<path style="fill:#E53935;" d="M96.001,118.946c-3.357,0-6.519-1.581-8.533-4.267l-64-85.333
		c-3.536-4.712-2.582-11.398,2.13-14.934s11.398-2.582,14.934,2.13c0.001,0.001,0.002,0.002,0.003,0.004l55.467,73.941
		l55.467-73.941c3.535-4.713,10.22-5.668,14.933-2.133c4.713,3.535,5.668,10.221,2.133,14.933l0,0l-64,85.333
		C102.52,117.366,99.359,118.946,96.001,118.946z"/>
	<path style="fill:#E53935;" d="M96.001,204.28c-5.891,0-10.667-4.776-10.667-10.667V108.28c0-5.891,4.776-10.667,10.667-10.667
		c5.891,0,10.667,4.776,10.667,10.667v85.333C106.668,199.504,101.892,204.28,96.001,204.28z"/>
	<path style="fill:#E53935;" d="M213.334,204.28c-35.346,0-64-28.654-64-64v-21.333c0-35.346,28.654-64,64-64s64,28.654,64,64
		v21.333C277.334,175.626,248.681,204.28,213.334,204.28z M213.334,76.28c-23.564,0-42.667,19.103-42.667,42.667v21.333
		c0,23.564,19.103,42.667,42.667,42.667s42.667-19.103,42.667-42.667v-21.333C256.001,95.382,236.899,76.28,213.334,76.28
		C213.334,76.28,213.334,76.28,213.334,76.28z"/>
	<path style="fill:#E53935;" d="M362.668,204.28c-35.346,0-64-28.654-64-64V65.613c0-5.891,4.776-10.667,10.667-10.667
		s10.667,4.776,10.667,10.667v74.667c0,23.564,19.103,42.667,42.667,42.667s42.667-19.103,42.667-42.667V65.613
		c0-5.891,4.776-10.667,10.667-10.667c5.891,0,10.667,4.776,10.667,10.667v74.667C426.668,175.626,398.014,204.28,362.668,204.28z"
		/>
	<path style="fill:#E53935;" d="M458.668,204.28c-53.333,0-53.333-56.192-53.333-74.667c0-5.891,4.776-10.667,10.667-10.667
		c5.891,0,10.667,4.776,10.667,10.667c0,44.267,12.8,53.333,32,53.333c5.891,0,10.667,4.776,10.667,10.667
		S464.559,204.28,458.668,204.28z"/>
</g>
<g>
	<path style="fill:#FAFAFA;" d="M192.001,438.946c-23.564,0-42.667-19.102-42.667-42.667v-53.333
		c0-5.891,4.776-10.667,10.667-10.667c5.891,0,10.667,4.776,10.667,10.667v53.333c0,11.782,9.551,21.333,21.333,21.333
		c11.782,0,21.333-9.551,21.333-21.333v-53.333c0-5.891,4.776-10.667,10.667-10.667c5.891,0,10.667,4.776,10.667,10.667v53.333
		C234.668,419.844,215.565,438.946,192.001,438.946z"/>
	<path style="fill:#FAFAFA;" d="M266.668,438.946c-5.891,0-10.667-4.776-10.667-10.667v-128c0-5.891,4.776-10.667,10.667-10.667
		c5.891,0,10.667,4.776,10.667,10.667v128C277.334,434.171,272.559,438.946,266.668,438.946z"/>
	<path style="fill:#FAFAFA;" d="M448.001,438.946h-21.333c-23.564,0-42.667-19.102-42.667-42.667v-21.333
		c0-23.564,19.103-42.667,42.667-42.667c23.564,0,42.667,19.103,42.667,42.667v10.667c0,5.891-4.776,10.667-10.667,10.667h-53.333
		c0,11.782,9.551,21.333,21.333,21.333h21.333c5.891,0,10.667,4.776,10.667,10.667S453.892,438.946,448.001,438.946z
		 M405.334,374.946h42.667c0-11.782-9.551-21.333-21.333-21.333C414.886,353.613,405.334,363.164,405.334,374.946z"/>
	<path style="fill:#FAFAFA;" d="M309.334,438.946c-29.455,0-53.333-23.878-53.333-53.333s23.878-53.333,53.333-53.333
		s53.333,23.878,53.333,53.333S338.79,438.946,309.334,438.946z M309.334,353.613c-17.673,0-32,14.327-32,32s14.327,32,32,32
		s32-14.327,32-32S327.008,353.613,309.334,353.613z"/>
</g>
<g>
</g>
<g>
</g>
<g>
</g>
<g>
</g>
<g>
</g>
<g>
</g>
<g>
</g>
<g>
</g>
<g>
</g>
<g>
</g>
<g>
</g>
<g>
</g>
<g>
</g>
<g>
</g>
<g>
</g>
</svg>
